<svg width="395" height="377" viewBox="0 0 395 377" fill="none" xmlns="http://www.w3.org/2000/svg">
<path d="M352.136 304.867C284.833 386.364 160.957 400.428 75.4514 336.28C-10.0543 272.132 -24.8102 154.062 42.4931 72.5645C109.796 -8.93314 233.672 -22.9974 319.178 41.1511C404.684 105.3 419.44 223.369 352.136 304.867Z" fill="#F8EED3"/>
<path d="M155.932 196.305C151.694 195.48 148.952 192.211 149.757 188.454C150.291 185.961 152.194 184.218 155.092 183.674C153.177 182.228 152.427 180.212 152.861 178.184C153.538 175.025 156.828 173.138 160.666 173.885C162.134 174.17 163.658 174.848 164.285 175.489L162.915 177.993C162.361 177.331 161.145 176.679 160.044 176.465C157.841 176.036 155.961 177.021 155.541 178.982C155.121 180.944 156.424 182.652 158.626 183.081L161.63 183.665C162.665 183.867 163.617 183.152 163.874 181.955L164.337 179.794L166.873 180.287L165.969 184.51L169.306 185.159L168.75 187.752L165.413 187.103L164.508 191.325C163.739 194.915 160.271 197.149 155.932 196.305ZM152.684 188.747C152.2 191.007 153.746 193.04 156.383 193.553C159.086 194.079 161.411 192.8 161.895 190.539L162.743 186.583L158.071 185.674C155.367 185.148 153.154 186.552 152.684 188.747Z" fill="black"/>
<path d="M177.445 200.076L182.074 178.467L186.279 179.285L189.351 198.376L199.896 181.935L203.967 182.728L199.338 204.337L196.534 203.792L200.295 186.238L189.874 202.426L187.137 201.894L184.009 183.068L180.248 200.622L177.445 200.076Z" fill="black"/>
<path d="M211.139 207.05C206.267 206.101 203.572 201.802 204.662 196.716C205.752 191.629 209.999 188.681 214.872 189.629C219.744 190.577 222.439 194.877 221.349 199.963C220.259 205.05 216.012 207.998 211.139 207.05ZM207.465 197.261C206.711 200.785 208.472 203.76 211.709 204.39C214.947 205.02 217.791 202.942 218.546 199.418C219.308 195.86 217.553 192.852 214.316 192.222C211.079 191.592 208.228 193.704 207.465 197.261Z" fill="black"/>
<path d="M223.121 208.966L226.682 192.343L228.952 192.785L228.649 195.497C230.003 193.232 232.822 192.569 235.522 193.925L234.719 197.024C232.334 195.175 228.761 195.622 227.956 199.379L225.791 209.486L223.121 208.966Z" fill="black"/>
<path d="M241.659 212.99C236.82 212.048 234.159 207.755 235.249 202.669C236.338 197.582 240.452 194.608 245.124 195.517C250.231 196.511 252.463 201.344 250.866 206.851L237.984 204.344C237.824 207.36 239.459 209.791 242.296 210.343C244.565 210.785 246.652 209.806 247.452 208.022L250.122 209.511C248.695 212.281 245.264 213.691 241.659 212.99ZM238.573 201.757L248.585 203.706C248.783 200.835 247.172 198.617 244.636 198.123C241.999 197.61 239.624 199.122 238.573 201.757Z" fill="black"/>
<path d="M254.327 208.39L257.536 192.114L260.339 192.66L256.597 208.832L254.327 208.39ZM252.372 212.65C252.642 211.387 253.743 210.632 254.978 210.872C256.212 211.112 256.914 212.218 256.643 213.482C256.373 214.745 255.272 215.501 254.037 215.26C252.803 215.02 252.101 213.914 252.372 212.65Z" fill="black"/>
</svg>
