<svg width="446" height="426" viewBox="0 0 446 426" fill="none" xmlns="http://www.w3.org/2000/svg">
<path d="M67.4898 23.5113C70.905 8.00823 86.2923 -2.03414 101.858 1.08098L422.57 65.2624C438.136 68.3776 447.986 83.4706 444.571 98.9736L377.765 402.238C374.35 417.741 358.962 427.783 343.396 424.668L22.685 360.487C7.11884 357.372 -2.73149 342.279 0.683681 326.776L67.4898 23.5113Z" fill="#F7DC00"/>
<path d="M154.796 189.544L167.421 168.274L170.555 168.862L176.162 193.546L172.743 192.906L171.308 186.237L161.515 184.403L158.215 190.184L154.796 189.544ZM163.015 181.775L170.636 183.203L168.323 172.443L163.015 181.775Z" fill="black"/>
<path d="M178.954 194.069L181.653 176.395L184.074 176.848L183.931 179.948C185.216 178.007 187.771 177.104 190.406 177.598C194.43 178.352 196.84 182.003 196.192 186.245L194.551 196.991L191.702 196.457L193.3 185.994C193.732 183.166 192.111 180.826 189.405 180.319C186.414 179.759 183.773 181.7 183.271 184.988L181.803 194.603L178.954 194.069Z" fill="black"/>
<path d="M201.727 180.155L204.575 180.689L201.876 198.363L199.027 197.83L201.727 180.155ZM201.634 175.483C201.834 174.175 202.905 173.395 204.187 173.635C205.469 173.875 206.249 175.003 206.05 176.311C205.85 177.619 204.778 178.4 203.496 178.159C202.214 177.919 201.434 176.791 201.634 175.483Z" fill="black"/>
<path d="M206.791 199.284L209.49 181.609L211.769 182.036L211.741 185.34C212.746 183.31 215.145 182.232 217.745 182.719C220.309 183.199 222.361 185.111 223.018 187.525C224.177 185.451 226.647 184.387 229.354 184.894C233.164 185.608 235.436 189.197 234.783 193.474L233.142 204.22L230.293 203.686L231.913 193.082C232.323 190.395 230.905 188.166 228.484 187.712C225.742 187.199 223.443 189.059 222.973 192.134L221.462 202.032L218.649 201.505L220.268 190.9C220.679 188.214 219.225 185.978 216.804 185.524C213.99 184.997 211.615 186.88 211.129 190.061L209.64 199.817L206.791 199.284Z" fill="black"/>
<path d="M242.281 206.368C238.755 205.708 236.748 203.259 237.218 200.184C237.59 197.745 239.851 196.132 242.959 196.169L248.594 196.206C249.216 196.214 249.749 195.841 249.835 195.275C250.175 193.048 248.887 191.171 246.715 190.764C244.436 190.337 242.478 191.643 241.958 194.091L238.878 193.15C239.795 189.541 243.151 187.478 246.961 188.192C250.878 188.926 253.24 192.168 252.662 195.95L251.432 204.01L250.963 207.558L248.684 207.132L248.596 204.352C247.2 206.054 244.88 206.855 242.281 206.368ZM240.373 200.63C240.146 202.114 241.277 203.344 243.271 203.718C246.263 204.278 248.712 202.628 249.144 199.8L249.333 198.563C249.002 198.574 248.594 198.606 248.156 198.597L243.326 198.565C241.716 198.554 240.567 199.357 240.373 200.63Z" fill="black"/>
<path d="M262.852 209.931C259.731 210.219 255.943 208.637 256.548 204.678L258.243 193.578L255.394 193.044L255.815 190.287L256.884 190.487C258.059 190.707 258.936 189.999 259.141 188.656L259.497 186.323L262.204 186.83L261.513 191.354L265.501 192.102L265.08 194.859L261.092 194.112L259.505 204.504C259.202 206.484 261.181 207.436 263.141 207.076L262.852 209.931Z" fill="black"/>
<path d="M273.769 212.267C268.606 211.3 265.527 206.76 266.352 201.351C267.178 195.943 271.328 192.757 276.313 193.691C281.761 194.711 284.423 199.828 283.089 205.686L269.344 203.111C269.367 206.315 271.246 208.885 274.273 209.452C276.694 209.906 278.833 208.852 279.562 206.953L282.474 208.516C281.144 211.467 277.615 212.987 273.769 212.267ZM269.8 200.361L280.483 202.362C280.509 199.313 278.67 196.968 275.963 196.461C273.15 195.934 270.741 197.556 269.8 200.361Z" fill="black"/>
<path d="M292.858 215.843C288.015 214.936 285.119 210.393 285.95 204.95C286.771 199.576 290.808 196.406 295.615 197.306C298.357 197.82 300.477 199.526 301.66 201.857L303.074 192.595L305.923 193.129L302.792 213.631L302.324 217.18L299.902 216.726L300.01 213.619C298.185 215.495 295.671 216.37 292.858 215.843ZM288.931 205.581C288.358 209.328 290.441 212.481 293.895 213.128C297.349 213.775 300.252 211.556 300.824 207.809C301.402 204.026 299.325 200.837 295.871 200.19C292.417 199.543 289.508 201.798 288.931 205.581Z" fill="black"/>
<path d="M145.33 231.201L148.839 208.224L164.649 211.186L164.218 214.014L151.398 211.613L150.329 218.612L161.439 220.693L161.008 223.521L149.897 221.44L148.764 228.863L161.868 231.318L161.426 234.216L145.33 231.201Z" fill="black"/>
<path d="M162.987 234.509L171.135 226.727L165.971 216.888L169.532 217.555L173.282 224.657L178.648 219.262L182.209 219.929L174.625 227.381L180.08 237.711L176.59 237.057L172.559 229.394L166.691 235.203L162.987 234.509Z" fill="black"/>
<path d="M191.993 240.379C189.323 239.879 187.227 238.25 186.075 235.961L184.569 245.824L181.72 245.29L185.499 220.546L187.92 220.999L187.839 223.929C189.612 222.153 192.151 221.356 194.893 221.869C199.701 222.77 202.572 227.235 201.751 232.608C200.92 238.051 196.836 241.286 191.993 240.379ZM186.927 229.903C186.355 233.65 188.401 236.797 191.856 237.444C195.31 238.091 198.177 235.865 198.749 232.118C199.327 228.336 197.285 225.153 193.831 224.506C190.377 223.859 187.504 226.121 186.927 229.903Z" fill="black"/>
<path d="M204.16 242.222L207.831 218.184L210.679 218.718L207.009 242.755L204.16 242.222Z" fill="black"/>
<path d="M216.559 244.981C213.034 244.32 211.027 241.872 211.496 238.796C211.869 236.357 214.13 234.745 217.237 234.781L222.872 234.819C223.494 234.826 224.027 234.453 224.114 233.888C224.454 231.661 223.165 229.783 220.993 229.376C218.714 228.949 216.756 230.255 216.236 232.703L213.156 231.763C214.074 228.153 217.429 226.091 221.239 226.804C225.156 227.538 227.518 230.78 226.941 234.563L225.71 242.623L225.241 246.171L222.962 245.744L222.874 242.964C221.479 244.666 219.159 245.468 216.559 244.981ZM214.652 239.242C214.425 240.727 215.556 241.957 217.55 242.33C220.541 242.891 222.991 241.24 223.423 238.413L223.611 237.175C223.28 237.186 222.872 237.219 222.434 237.209L217.604 237.177C215.994 237.166 214.846 237.969 214.652 239.242Z" fill="black"/>
<path d="M232.366 229.325L235.215 229.859L232.516 247.533L229.667 247L232.366 229.325ZM232.274 224.654C232.473 223.346 233.545 222.565 234.827 222.805C236.109 223.045 236.889 224.173 236.689 225.481C236.489 226.789 235.418 227.57 234.136 227.33C232.854 227.089 232.074 225.962 232.274 224.654Z" fill="black"/>
<path d="M237.43 248.454L240.129 230.779L242.551 231.233L242.407 234.333C243.692 232.392 246.248 231.489 248.883 231.983C252.907 232.737 255.316 236.388 254.668 240.63L253.027 251.376L250.179 250.842L251.776 240.379C252.208 237.551 250.588 235.211 247.881 234.704C244.89 234.144 242.249 236.085 241.747 239.373L240.279 248.988L237.43 248.454Z" fill="black"/>
<path d="M265.131 254.079C259.968 253.112 256.888 248.572 257.714 243.164C258.54 237.755 262.689 234.569 267.675 235.503C273.123 236.524 275.785 241.64 274.451 247.499L260.705 244.924C260.729 248.128 262.607 250.698 265.634 251.265C268.055 251.718 270.194 250.665 270.924 248.765L273.835 250.329C272.506 253.279 268.977 254.8 265.131 254.079ZM261.162 242.173L271.845 244.174C271.871 241.125 270.031 238.781 267.325 238.274C264.512 237.747 262.103 239.368 261.162 242.173Z" fill="black"/>
<path d="M277.091 255.884L279.79 238.209L282.211 238.662L282.064 241.544C283.349 239.13 286.28 238.406 289.212 239.828L288.563 243.125C285.93 241.177 282.191 241.676 281.581 245.671L279.94 256.417L277.091 255.884Z" fill="black"/>
<path d="M295.473 259.763C291.2 258.963 288.433 255.972 288.645 252.667L291.908 252.405C291.727 254.553 293.462 256.623 296.026 257.103C298.02 257.477 299.749 256.71 299.975 255.225C300.58 251.266 289.802 250.847 290.709 244.908C291.152 242.01 294.028 240.44 297.732 241.134C301.435 241.827 303.87 244.356 303.835 247.222L300.725 247.439C300.918 245.694 299.54 244.163 297.404 243.763C295.481 243.403 293.976 244.139 293.771 245.482C293.188 249.3 304.038 249.732 303.109 255.812C302.645 258.852 299.461 260.51 295.473 259.763Z" fill="black"/>
</svg>
