<svg width="509" height="423" viewBox="0 0 509 423" fill="none" xmlns="http://www.w3.org/2000/svg">
<path d="M30.4044 90.6364L461.149 1.14214C491.632 -5.19109 517.196 25.4505 505.093 53.8137L357.382 399.978C347.16 423.934 315.989 430.324 296.327 412.493L13.294 155.823C-9.9151 134.776 0.013382 96.9506 30.4044 90.6364Z" fill="#ED6630"/>
<path d="M214.899 183.488L205.549 174.799L202.425 180.174L203.443 185.483L200.629 185.973L196.469 164.268L199.283 163.778L201.664 176.2L209.599 161.982L213.351 161.328L207.029 172.229L218.449 182.87L214.899 183.488Z" fill="black"/>
<path d="M227.543 181.701C222.686 182.546 218.538 179.507 217.559 174.398C216.58 169.289 219.232 165.066 223.921 164.25C229.046 163.357 233.008 167.05 233.681 172.73L220.751 174.981C221.784 177.838 224.251 179.513 227.098 179.018C229.376 178.621 230.928 176.97 230.972 175.03L234.032 175.464C233.791 178.542 231.161 181.071 227.543 181.701ZM220.286 172.371L230.334 170.621C229.395 167.886 227.033 166.399 224.487 166.843C221.841 167.303 220.23 169.551 220.286 172.371Z" fill="black"/>
<path d="M239.417 183.636C240.865 183.246 241.863 182.313 242.172 180.672L242.649 178.104L232.986 163.085L236.134 162.537L243.482 174.508L245.58 160.892L248.662 160.356L244.954 180.739C244.427 183.591 242.918 185.649 240.691 186.312L239.417 183.636Z" fill="black"/>
<path d="M254.397 176.61L251.197 159.914L253.474 159.518L254.326 162.337C254.847 160.176 256.814 158.522 259.293 158.09C263.078 157.431 266.354 159.897 267.122 163.904L269.068 174.056L266.389 174.522L264.494 164.638C263.982 161.967 261.815 160.412 259.269 160.855C256.455 161.345 254.74 163.956 255.336 167.061L257.077 176.144L254.397 176.61Z" fill="black"/>
<path d="M280.658 172.452C275.768 173.303 271.586 170.27 270.607 165.161C269.628 160.052 272.414 155.806 277.304 154.954C282.194 154.103 286.376 157.136 287.355 162.245C288.334 167.354 285.548 171.6 280.658 172.452ZM273.421 164.671C274.099 168.211 276.897 170.346 280.146 169.78C283.395 169.214 285.22 166.274 284.541 162.735C283.856 159.162 281.052 156.993 277.803 157.559C274.554 158.125 272.736 161.098 273.421 164.671Z" fill="black"/>
<path d="M299.456 168.902C296.796 170.194 292.958 170.034 292.241 166.294L290.231 155.809L287.552 156.275L287.052 153.671L288.057 153.496C289.163 153.303 289.712 152.379 289.469 151.111L289.047 148.907L291.592 148.463L292.412 152.738L296.163 152.084L296.662 154.689L292.911 155.342L294.793 165.159C295.151 167.029 297.196 167.225 298.81 166.254L299.456 168.902Z" fill="black"/>
<path d="M309.818 167.374C304.961 168.22 300.813 165.181 299.834 160.072C298.854 154.963 301.506 150.74 306.196 149.923C311.321 149.031 315.282 152.723 315.955 158.403L303.026 160.655C304.058 163.512 306.525 165.187 309.372 164.691C311.65 164.294 313.203 162.644 313.246 160.704L316.306 161.137C316.066 164.216 313.435 166.744 309.818 167.374ZM302.56 158.044L312.609 156.294C311.669 153.559 309.308 152.073 306.762 152.516C304.116 152.977 302.504 155.224 302.56 158.044Z" fill="black"/>
<path d="M335.736 162.861C331.482 163.602 327.66 161.541 326.937 157.768C326.456 155.263 327.54 152.97 330.015 151.435C327.673 150.773 326.188 149.168 325.798 147.131C325.19 143.959 327.503 141.037 331.355 140.366C332.828 140.11 334.507 140.197 335.34 140.57L335.048 143.381C334.275 142.963 332.892 142.79 331.787 142.983C329.576 143.368 328.218 144.95 328.596 146.92C328.973 148.89 330.85 150.013 333.061 149.628L336.075 149.103C337.114 148.922 337.718 147.92 337.487 146.717L337.071 144.547L339.617 144.104L340.43 148.344L343.779 147.761L344.278 150.366L340.929 150.949L341.742 155.19C342.433 158.796 340.09 162.103 335.736 162.861ZM329.766 156.999C330.201 159.27 332.431 160.607 335.077 160.146C337.79 159.674 339.446 157.66 339.011 155.389L338.249 151.416L333.56 152.232C330.847 152.705 329.344 154.795 329.766 156.999Z" fill="black"/>
<path d="M187.879 229.804L183.719 208.099L198.591 205.51L199.103 208.181L187.045 210.281L188.312 216.892L198.763 215.073L199.275 217.744L188.824 219.564L190.168 226.576L202.495 224.43L203.019 227.168L187.879 229.804Z" fill="black"/>
<path d="M210.658 225.838L201.026 210.261L204.175 209.713L211.643 222.491L213.889 208.022L216.903 207.497L213.806 225.289L210.658 225.838Z" fill="black"/>
<path d="M229.553 222.961C224.696 223.807 220.549 220.768 219.569 215.659C218.59 210.55 221.242 206.327 225.931 205.511C231.056 204.618 235.018 208.311 235.691 213.991L222.762 216.242C223.794 219.099 226.261 220.774 229.108 220.278C231.386 219.882 232.939 218.231 232.982 216.291L236.042 216.725C235.801 219.803 233.171 222.332 229.553 222.961ZM222.296 213.632L232.345 211.882C231.405 209.147 229.043 207.66 226.498 208.104C223.851 208.564 222.24 210.812 222.296 213.632Z" fill="black"/>
<path d="M240.665 220.612L237.465 203.916L239.743 203.52L240.595 206.339C241.115 204.178 243.083 202.524 245.561 202.092C249.346 201.433 252.623 203.899 253.391 207.907L255.337 218.058L252.657 218.524L250.762 208.64C250.25 205.969 248.083 204.414 245.537 204.857C242.724 205.347 241.009 207.958 241.604 211.063L243.345 220.146L240.665 220.612Z" fill="black"/>
<path d="M266.614 216.232C263.954 217.523 260.115 217.364 259.398 213.624L257.389 203.139L254.709 203.605L254.21 201.001L255.215 200.826C256.32 200.633 256.87 199.709 256.627 198.44L256.204 196.236L258.75 195.793L259.569 200.067L263.321 199.414L263.82 202.019L260.068 202.672L261.95 212.489C262.309 214.359 264.354 214.555 265.967 213.584L266.614 216.232Z" fill="black"/>
<path d="M283.582 213.139L271.449 192.823L274.531 192.286L284.604 209.442L287.461 190.035L290.475 189.51L286.798 212.579L283.582 213.139Z" fill="black"/>
<path d="M294.054 194.063L296.733 193.596L299.934 210.292L297.254 210.759L294.054 194.063ZM292.498 189.917C292.261 188.681 292.959 187.628 294.165 187.418C295.371 187.208 296.414 187.958 296.651 189.193C296.888 190.429 296.19 191.482 294.984 191.692C293.778 191.902 292.734 191.152 292.498 189.917Z" fill="black"/>
<path d="M311.399 208.71C306.844 209.503 302.857 206.401 301.872 201.259C300.899 196.183 303.457 192.011 307.979 191.224C310.558 190.775 312.965 191.598 314.743 193.289L313.066 184.541L315.746 184.074L319.458 203.441L320.166 206.769L317.888 207.166L317.002 204.352C315.986 206.634 314.046 208.249 311.399 208.71ZM304.698 200.836C305.377 204.375 308.208 206.505 311.457 205.939C314.706 205.373 316.564 202.427 315.886 198.888C315.201 195.315 312.363 193.152 309.114 193.718C305.865 194.283 304.013 197.263 304.698 200.836Z" fill="black"/>
<path d="M332.026 205.118C327.169 205.964 323.021 202.925 322.042 197.816C321.063 192.707 323.715 188.484 328.404 187.667C333.529 186.775 337.491 190.467 338.164 196.147L325.235 198.398C326.267 201.255 328.734 202.931 331.581 202.435C333.859 202.038 335.412 200.388 335.455 198.448L338.515 198.881C338.274 201.959 335.644 204.488 332.026 205.118ZM324.769 195.788L334.818 194.038C333.878 191.303 331.516 189.817 328.97 190.26C326.324 190.721 324.713 192.968 324.769 195.788Z" fill="black"/>
<path d="M350.517 201.898C345.627 202.75 341.446 199.716 340.466 194.607C339.487 189.498 342.273 185.252 347.163 184.4C352.054 183.549 356.235 186.582 357.214 191.691C358.194 196.8 355.408 201.046 350.517 201.898ZM343.28 194.117C343.958 197.657 346.756 199.792 350.005 199.227C353.254 198.661 355.079 195.721 354.401 192.181C353.716 188.608 350.912 186.439 347.663 187.005C344.413 187.571 342.595 190.544 343.28 194.117Z" fill="black"/>
<path d="M368.352 198.792C364.333 199.492 360.95 197.735 360.093 194.709L362.887 193.395C363.405 195.375 365.588 196.651 368 196.231C369.876 195.905 371.157 194.646 370.889 193.244C370.172 189.504 360.538 192.699 359.463 187.09C358.938 184.351 360.979 181.995 364.462 181.388C367.946 180.782 370.89 182.236 371.764 184.81L369.091 186.034C368.711 184.41 367.013 183.498 365.003 183.848C363.194 184.162 362.101 185.319 362.344 186.588C363.035 190.194 372.735 186.987 373.836 192.73C374.387 195.602 372.104 198.139 368.352 198.792Z" fill="black"/>
</svg>
