<svg width="632" height="402" viewBox="0 0 632 402" fill="none" xmlns="http://www.w3.org/2000/svg">
<path d="M11.3615 60.2396C37.8235 8.37062 102.103 -13.8284 154.934 10.6568L572.331 204.105C625.162 228.59 646.538 290.487 620.076 342.356C593.614 394.225 529.335 416.424 476.504 391.939L59.1067 198.491C6.27578 174.006 -15.1005 112.109 11.3615 60.2396Z" fill="#C1D9D0"/>
<path d="M254.992 160.228L265.035 140.541L273.487 144.459C277.097 146.131 278.39 149.951 276.567 153.525C274.728 157.129 270.7 158.52 267.029 156.819L261.291 154.16L257.583 161.428L254.992 160.228ZM262.527 151.737L268.265 154.396C270.363 155.368 272.709 154.508 273.837 152.297C274.964 150.086 274.226 147.797 272.128 146.824L266.39 144.165L262.527 151.737Z" fill="black"/>
<path d="M272.562 168.371L280.287 153.227L282.385 154.2L281.396 156.737C283.295 154.883 286.211 154.924 288.493 156.881L286.917 159.67C285.067 157.315 281.473 156.885 279.727 160.307L275.03 169.514L272.562 168.371Z" fill="black"/>
<path d="M289.652 176.741C285.148 174.653 283.624 169.865 285.988 165.232C288.352 160.598 293.245 158.783 297.749 160.871C302.252 162.958 303.776 167.746 301.412 172.38C299.048 177.014 294.156 178.828 289.652 176.741ZM288.58 166.432C286.942 169.643 287.896 172.931 290.888 174.318C293.881 175.705 297.183 174.389 298.821 171.179C300.475 167.938 299.536 164.62 296.543 163.233C293.551 161.846 290.233 163.192 288.58 166.432Z" fill="black"/>
<path d="M306.879 184.725C302.684 182.781 301.361 178.048 303.74 173.384C306.089 168.78 310.75 166.896 314.914 168.826C317.289 169.927 318.738 171.947 319.138 174.304L323.186 166.369L325.654 167.513L316.692 185.079L315.209 188.136L313.111 187.164L314.131 184.416C311.893 185.663 309.316 185.854 306.879 184.725ZM306.3 174.645C304.663 177.856 305.648 181.158 308.64 182.545C311.632 183.932 314.966 182.631 316.604 179.421C318.257 176.18 317.287 172.847 314.295 171.46C311.303 170.073 307.954 171.405 306.3 174.645Z" fill="black"/>
<path d="M324.827 193.043C321.31 191.413 320.078 187.846 321.871 184.333L326.753 174.763L329.221 175.906L324.524 185.113C323.396 187.324 324.274 189.716 326.649 190.817C329.178 191.989 331.879 191.031 333.162 188.518L337.612 179.795L340.079 180.939L333.899 193.053L332.416 196.111L330.256 195.11L331.122 192.515C329.578 193.897 327.171 194.129 324.827 193.043Z" fill="black"/>
<path d="M342.961 201.447C338.58 199.417 337.118 194.658 339.482 190.024C341.846 185.39 346.615 183.518 350.934 185.52C354.481 187.164 356.222 190.705 355.124 194.053L352.1 193.7C352.982 191.375 352.011 188.94 349.729 187.882C346.952 186.596 343.804 187.982 342.166 191.193C340.497 194.464 341.359 197.709 344.197 199.024C346.541 200.111 349.072 199.337 350.555 197.028L352.837 199.134C350.69 202.146 346.57 203.12 342.961 201.447Z" fill="black"/>
<path d="M359.876 208.987C356.913 208.513 353.891 206.213 355.622 202.821L360.473 193.311L358.005 192.168L359.211 189.805L360.136 190.234C361.154 190.706 362.173 190.279 362.76 189.129L363.78 187.13L366.124 188.216L364.146 192.093L367.601 193.694L366.396 196.056L362.941 194.455L358.398 203.359C357.533 205.055 359.075 206.369 360.988 206.507L359.876 208.987Z" fill="black"/>
<path d="M376.636 217.055C372.133 214.967 370.609 210.179 372.973 205.545C375.337 200.912 380.229 199.097 384.733 201.185C389.237 203.272 390.761 208.06 388.397 212.694C386.033 217.328 381.14 219.142 376.636 217.055ZM375.564 206.746C373.926 209.957 374.88 213.245 377.872 214.632C380.865 216.019 384.168 214.703 385.805 211.493C387.459 208.252 386.52 204.934 383.528 203.547C380.535 202.16 377.217 203.506 375.564 206.746Z" fill="black"/>
<path d="M387.818 221.787L395.543 206.644L397.641 207.616L396.652 210.154C398.551 208.3 401.467 208.341 403.749 210.297L402.173 213.087C400.323 210.732 396.729 210.302 394.983 213.724L390.285 222.931L387.818 221.787Z" fill="black"/>
<path d="M208.796 184.424C204.261 182.322 202.259 178.099 203.99 174.108L207.198 174.696C205.9 177.54 207.071 180.554 210.125 181.969C212.592 183.113 215.185 182.667 216.143 180.789C218.538 176.095 206.089 172.085 209.303 165.786C210.91 162.636 214.891 162.009 218.655 163.754C222.48 165.526 224.298 168.99 223.061 172.312L219.822 171.784C220.625 169.61 219.701 167.235 217.234 166.091C215.259 165.176 213.006 165.405 212.203 166.98C210.102 171.099 222.442 175.32 218.981 182.104C217.266 185.466 213.146 186.44 208.796 184.424Z" fill="black"/>
<path d="M226.141 192.463C221.668 190.39 220.175 185.616 222.539 180.982C224.903 176.348 229.672 174.477 233.99 176.478C238.71 178.666 239.647 183.856 236.682 188.772L224.774 183.254C223.846 186.119 224.816 188.853 227.439 190.068C229.536 191.041 231.82 190.601 233.055 189.077L235.276 191.154C233.176 193.476 229.472 194.007 226.141 192.463ZM226.01 180.906L235.265 185.195C236.192 182.479 235.191 179.956 232.847 178.869C230.41 177.74 227.709 178.623 226.01 180.906Z" fill="black"/>
<path d="M236.631 196.875L244.356 181.732L246.454 182.704L245.464 185.241C247.364 183.388 250.28 183.429 252.562 185.385L250.986 188.175C249.136 185.82 245.542 185.389 243.796 188.812L239.098 198.019L236.631 196.875Z" fill="black"/>
<path d="M251.433 203.735L253.236 185.847L256.135 187.191L254.304 201.621L265.081 191.337L267.858 192.624L254.333 205.079L251.433 203.735Z" fill="black"/>
<path d="M270.188 193.704L272.656 194.847L264.93 209.991L262.462 208.847L270.188 193.704ZM271.487 189.513C272.059 188.392 273.278 187.946 274.388 188.461C275.499 188.975 275.884 190.165 275.312 191.285C274.74 192.406 273.521 192.852 272.411 192.337C271.3 191.823 270.915 190.633 271.487 189.513Z" fill="black"/>
<path d="M275.542 215.358C271.161 213.328 269.699 208.568 272.063 203.935C274.427 199.301 279.196 197.429 283.515 199.431C287.062 201.075 288.803 204.616 287.705 207.964L284.681 207.611C285.562 205.286 284.592 202.851 282.309 201.793C279.533 200.507 276.385 201.893 274.747 205.104C273.078 208.375 273.94 211.62 276.778 212.935C279.122 214.022 281.653 213.248 283.136 210.939L285.418 213.045C283.271 216.057 279.151 217.031 275.542 215.358Z" fill="black"/>
<path d="M292.392 223.167C287.919 221.094 286.425 216.321 288.79 211.687C291.154 207.053 295.923 205.181 300.241 207.183C304.961 209.37 305.898 214.561 302.932 219.477L291.025 213.959C290.097 216.824 291.067 219.558 293.689 220.773C295.787 221.745 298.071 221.306 299.306 219.781L301.527 221.859C299.427 224.181 295.723 224.712 292.392 223.167ZM292.261 211.611L301.516 215.9C302.443 213.184 301.442 210.661 299.098 209.574C296.661 208.445 293.96 209.327 292.261 211.611Z" fill="black"/>
<path d="M309.968 230.864L320.011 211.178L328.464 215.095C332.073 216.768 333.366 220.588 331.543 224.162C329.704 227.766 325.676 229.157 322.005 227.456L316.268 224.796L312.559 232.065L309.968 230.864ZM317.504 222.373L323.241 225.033C325.339 226.005 327.685 225.145 328.813 222.934C329.941 220.723 329.202 218.433 327.104 217.461L321.366 214.802L317.504 222.373Z" fill="black"/>
<path d="M327.538 239.007L335.264 223.864L337.361 224.836L336.372 227.374C338.271 225.52 341.187 225.561 343.469 227.517L341.894 230.307C340.044 227.952 336.449 227.522 334.703 230.944L330.006 240.151L327.538 239.007Z" fill="black"/>
<path d="M344.629 247.377C340.125 245.29 338.601 240.502 340.965 235.868C343.329 231.234 348.221 229.42 352.725 231.507C357.229 233.595 358.753 238.383 356.389 243.017C354.025 247.65 349.132 249.465 344.629 247.377ZM343.556 237.069C341.918 240.279 342.872 243.568 345.865 244.954C348.857 246.341 352.16 245.026 353.798 241.816C355.451 238.575 354.512 235.256 351.52 233.87C348.528 232.483 345.209 233.828 343.556 237.069Z" fill="black"/>
<path d="M355.81 252.11L363.535 236.967L365.51 237.882L364.505 240.824C366.033 239.248 368.564 238.848 370.816 239.892C373.037 240.921 374.362 243.108 374.253 245.417C375.936 243.837 378.528 243.466 380.872 244.553C384.173 246.082 385.204 249.818 383.335 253.483L378.637 262.69L376.17 261.546L380.805 252.46C381.979 250.158 381.333 247.837 379.235 246.864C376.86 245.764 374.19 246.885 372.846 249.52L368.519 258L366.082 256.871L370.718 247.785C371.892 245.483 371.215 243.147 369.117 242.175C366.68 241.046 363.933 242.169 362.542 244.895L358.278 253.254L355.81 252.11Z" fill="black"/>
<path d="M389.077 267.978C384.574 265.89 383.05 261.102 385.414 256.468C387.778 251.835 392.67 250.02 397.174 252.108C401.678 254.195 403.202 258.983 400.838 263.617C398.474 268.251 393.581 270.065 389.077 267.978ZM388.005 257.669C386.367 260.88 387.321 264.168 390.314 265.555C393.306 266.942 396.609 265.626 398.246 262.416C399.9 259.175 398.961 255.857 395.969 254.47C392.976 253.083 389.658 254.429 388.005 257.669Z" fill="black"/>
<path d="M405.503 275.59C401.801 273.875 400.137 270.557 401.312 267.656L404.397 268.187C403.593 270.062 404.579 272.316 406.8 273.346C408.528 274.146 410.349 273.867 410.998 272.595C412.728 269.203 402.917 266.303 405.513 261.215C406.78 258.732 409.897 258.004 413.105 259.491C416.314 260.978 417.808 263.805 416.927 266.355L413.996 265.821C414.691 264.308 413.875 262.619 412.024 261.761C410.358 260.989 408.753 261.294 408.166 262.445C406.497 265.716 416.37 268.644 413.712 273.853C412.383 276.457 408.958 277.191 405.503 275.59Z" fill="black"/>
</svg>
