<svg width="456" height="312" viewBox="0 0 456 312" fill="none" xmlns="http://www.w3.org/2000/svg">
<path fill-rule="evenodd" clip-rule="evenodd" d="M408.679 2.62389C424.189 -3.60094 441.916 4.60633 446.39 20.0872C478.166 130.008 420.185 248.038 306.925 293.424C193.664 338.809 64.6031 295.842 4.38155 197.288C-4.09995 183.422 2.14558 165.623 17.6553 159.399L408.679 2.62389Z" fill="#07EC70"/>
<path d="M197.067 196.887C192.105 198.821 187.185 197.364 185.11 193.263L187.877 191.263C189.309 194.234 192.637 195.468 195.978 194.166C198.679 193.113 200.151 190.851 199.277 188.814C197.091 183.72 184.927 190.265 181.994 183.43C180.527 180.013 182.837 176.58 186.955 174.975C191.141 173.343 195.301 174.407 197.172 177.666L194.433 179.731C193.204 177.602 190.581 176.63 187.881 177.683C185.72 178.525 184.309 180.379 185.043 182.088C186.961 186.557 199.223 180.242 202.382 187.603C203.947 191.251 201.827 195.031 197.067 196.887Z" fill="black"/>
<path d="M216.114 189.461C211.186 191.382 206.138 189.169 203.98 184.141C201.823 179.114 203.796 174.163 208.725 172.242C213.653 170.321 218.7 172.534 220.858 177.562C223.016 182.59 221.042 187.54 216.114 189.461ZM206.816 183.036C208.311 186.519 211.712 188.109 214.986 186.832C218.26 185.556 219.517 182.15 218.023 178.667C216.514 175.151 213.099 173.529 209.824 174.805C206.55 176.082 205.307 179.52 206.816 183.036Z" fill="black"/>
<path d="M221.194 166C219.361 161.728 223.196 158.545 226.9 159.096L227.19 161.975C225.118 161.555 223.006 162.877 223.894 164.947L224.868 167.215L228.918 165.635L230.018 168.199L225.967 169.778L231.622 182.955L228.922 184.008L223.267 170.83L220.702 171.831L219.602 169.267L222.167 168.267L221.194 166Z" fill="black"/>
<path d="M246.014 177.498C243.517 179.392 239.466 180.051 237.886 176.37L233.458 166.052L230.758 167.105L229.658 164.542L230.67 164.147C231.784 163.712 232.155 162.647 231.619 161.399L230.688 159.23L233.254 158.23L235.059 162.436L238.839 160.962L239.939 163.525L236.159 164.999L240.305 174.66C241.094 176.501 243.278 176.263 244.751 174.922L246.014 177.498Z" fill="black"/>
<path d="M250.67 175.529L240.919 160.151L243.755 159.046L251.162 171.348L249.29 156.888L252.261 155.73L261.356 167.374L257.797 153.572L260.497 152.519L264.577 170.108L261.337 171.371L252.231 159.884L254.046 174.213L250.67 175.529Z" fill="black"/>
<path d="M275.215 166.421C271.873 167.724 268.875 166.706 267.648 163.847C266.675 161.58 267.742 159.016 270.4 157.404L275.203 154.458C275.735 154.135 275.99 153.537 275.764 153.011C274.876 150.941 272.79 150.028 270.731 150.831C268.571 151.673 267.599 153.816 268.451 156.169L265.34 156.999C264.211 153.449 265.969 149.926 269.581 148.517C273.294 147.07 277.012 148.574 278.521 152.09L281.736 159.582L283.214 162.842L281.054 163.684L279.51 161.371C279.225 163.554 277.679 165.46 275.215 166.421ZM270.562 162.558C271.155 163.938 272.765 164.384 274.655 163.647C277.49 162.542 278.698 159.846 277.569 157.218L277.076 156.067C276.8 156.252 276.471 156.495 276.094 156.718L271.977 159.244C270.605 160.086 270.055 161.375 270.562 162.558Z" fill="black"/>
<path d="M287.409 161.207L280.358 144.776L282.654 143.881L284.052 146.405C283.866 143.677 285.972 141.514 289.213 141.171L290.404 144.312C287.139 144.05 284.229 146.451 285.823 150.164L290.11 160.154L287.409 161.207Z" fill="black"/>
<path d="M306.415 154.258C301.52 156.166 296.506 153.939 294.349 148.912C292.191 143.884 294.03 138.986 298.755 137.144C303.92 135.13 308.884 138.067 310.848 143.745L297.818 148.825C299.532 151.532 302.485 152.721 305.354 151.603C307.65 150.708 308.908 148.683 308.524 146.685L311.821 146.473C312.252 149.681 310.06 152.837 306.415 154.258ZM296.752 146.249L306.879 142.301C305.289 139.698 302.488 138.681 299.923 139.681C297.256 140.72 296.069 143.37 296.752 146.249Z" fill="black"/>
<path d="M221.169 232.848L212.003 211.488L220.239 208.277C226.281 205.921 232.739 208.391 235.475 214.766C238.069 220.812 235.92 227.097 229.945 229.426L221.169 232.848ZM222.848 229.048L228.519 226.837C232.84 225.152 234.507 220.59 232.532 215.989C230.516 211.29 225.789 209.182 221.232 210.958L215.966 213.011L222.848 229.048Z" fill="black"/>
<path d="M251.251 221.581C246.356 223.489 241.342 221.262 239.185 216.235C237.027 211.207 238.865 206.309 243.591 204.467C248.756 202.453 253.72 205.39 255.684 211.068L242.654 216.148C244.368 218.855 247.321 220.044 250.19 218.925C252.485 218.031 253.744 216.006 253.359 214.007L256.657 213.796C257.088 217.003 254.896 220.159 251.251 221.581ZM241.588 213.571L251.714 209.624C250.125 207.021 247.324 206.003 244.759 207.004C242.092 208.043 240.904 210.693 241.588 213.571Z" fill="black"/>
<path d="M262.357 216.791L255.306 200.36L257.466 199.518L259.188 202.337C258.969 200.083 260.436 197.9 262.9 196.939C265.331 195.992 268.083 196.53 269.917 198.231C269.805 195.859 271.339 193.649 273.904 192.649C277.516 191.241 281.342 193.087 283.048 197.063L287.335 207.053L284.635 208.106L280.405 198.247C279.333 195.75 276.951 194.607 274.656 195.502C272.057 196.515 271.088 199.309 272.315 202.168L276.264 211.369L273.597 212.409L269.367 202.55C268.295 200.053 265.879 198.923 263.584 199.818C260.917 200.858 259.896 203.711 261.165 206.668L265.057 215.738L262.357 216.791Z" fill="black"/>
<path d="M299.131 202.914C294.203 204.836 289.156 202.622 286.998 197.595C284.84 192.567 286.814 187.616 291.742 185.695C296.67 183.774 301.718 185.987 303.875 191.015C306.033 196.043 304.06 200.993 299.131 202.914ZM289.833 196.489C291.328 199.973 294.729 201.562 298.003 200.286C301.278 199.009 302.535 195.604 301.04 192.12C299.531 188.604 296.116 186.982 292.842 188.258C289.568 189.535 288.325 192.973 289.833 196.489Z" fill="black"/>
<path d="M317.104 195.908C313.054 197.487 309.124 196.41 307.557 193.492L310.189 191.546C311.17 193.465 313.737 194.305 316.168 193.358C318.058 192.621 319.12 191.056 318.528 189.676C316.948 185.995 307.577 191.336 305.208 185.816C304.052 183.121 305.664 180.268 309.175 178.899C312.685 177.531 316.088 178.39 317.574 180.842L315.049 182.67C314.29 181.086 312.311 180.515 310.286 181.305C308.463 182.015 307.575 183.435 308.111 184.684C309.634 188.233 319.073 182.866 321.498 188.518C322.711 191.344 320.885 194.434 317.104 195.908Z" fill="black"/>
</svg>
